<?xml version="1.0" standalone="no"?>
<!DOCTYPE svg PUBLIC "-//W3C//DTD SVG 20010904//EN"
 "http://www.w3.org/TR/2001/REC-SVG-20010904/DTD/svg10.dtd">
<svg version="1.0" xmlns="http://www.w3.org/2000/svg"
 width="800.000000pt" height="171.000000pt" viewBox="0 0 800.000000 171.000000"
 preserveAspectRatio="xMidYMid meet">

<g transform="translate(0.000000,171.000000) scale(0.100000,-0.100000)"
fill="#000000" stroke="none">
<path d="M3440 1666 c-185 -40 -327 -120 -451 -254 -148 -161 -213 -331 -213
-557 0 -226 65 -396 213 -557 110 -119 249 -203 406 -244 96 -26 313 -25 405
0 287 79 510 298 592 583 33 111 32 323 0 436 -68 237 -232 429 -456 532 -39
18 -98 41 -131 50 -83 22 -282 28 -365 11z m285 -191 c232 -49 425 -236 485
-471 55 -212 -9 -433 -170 -595 -250 -251 -640 -251 -891 0 -88 89 -150 201
-174 316 -93 444 306 843 750 750z"/>
<path d="M30 860 l0 -770 95 0 95 0 2 571 3 571 519 -571 518 -571 49 0 49 0
0 770 0 770 -95 0 -95 0 -2 -575 -3 -575 -520 575 -520 575 -47 0 -48 0 0
-770z"/>
<path d="M1670 860 l0 -770 540 0 c297 0 540 2 540 5 0 3 -20 29 -44 59 -24
30 -52 68 -62 85 l-18 31 -378 0 -378 0 0 255 0 255 295 0 295 0 0 90 0 90
-292 2 -293 3 -3 238 -2 237 378 0 378 0 18 31 c10 17 37 54 60 83 23 28 45
57 50 64 6 9 -105 12 -538 12 l-546 0 0 -770z"/>
<path d="M4430 1624 c0 -3 18 -26 40 -51 22 -25 52 -65 67 -89 l28 -44 385 0
c413 -1 427 -2 494 -54 79 -60 105 -196 55 -286 -32 -58 -95 -105 -159 -119
-30 -7 -168 -11 -337 -11 l-285 0 6 -22 c3 -13 6 -56 6 -95 l0 -73 173 0 172
0 223 -345 224 -345 109 0 109 0 -43 68 c-173 269 -387 613 -387 620 0 5 24
12 52 15 123 15 253 113 311 235 30 63 32 73 32 182 0 110 -1 118 -33 182 -56
114 -150 190 -277 223 -49 12 -137 15 -512 15 -249 0 -453 -3 -453 -6z"/>
<path d="M6020 860 l0 -770 95 0 95 0 0 770 0 770 -95 0 -95 0 0 -770z"/>
<path d="M6830 1614 c-112 -30 -212 -110 -261 -209 -117 -237 -9 -506 239
-597 53 -20 84 -22 437 -27 368 -6 381 -7 415 -28 114 -71 156 -205 101 -328
-29 -65 -55 -93 -116 -121 l-50 -24 -482 0 -483 0 0 -95 0 -95 483 0 c534 0
554 2 656 63 68 41 123 103 164 186 31 63 32 70 32 191 0 120 -1 128 -32 192
-44 94 -109 160 -202 206 l-75 37 -380 5 c-362 5 -383 6 -426 26 -119 56 -171
190 -119 304 25 56 53 86 104 113 39 21 51 22 483 25 l442 3 0 94 0 95 -437
-1 c-353 0 -449 -3 -493 -15z"/>
</g>
</svg>
